<?xml version="1.0" encoding="utf-8"?>
<!-- Generator: Adobe Illustrator 24.3.0, SVG Export Plug-In . SVG Version: 6.00 Build 0)  -->
<svg version="1.1" xmlns="http://www.w3.org/2000/svg" xmlns:xlink="http://www.w3.org/1999/xlink" x="0px" y="0px"
	 viewBox="0 0 239.4 118.3" style="enable-background:new 0 0 239.4 118.3;" xml:space="preserve">
<style type="text/css">
	.st0{clip-path:url(#SVGID_2_);fill:#ED185A;}
	.st1{clip-path:url(#SVGID_2_);fill:#FCD595;}
	.st2{clip-path:url(#SVGID_2_);fill:#F58133;}
	.st3{clip-path:url(#SVGID_2_);fill:#F15E23;}
	.st4{clip-path:url(#SVGID_2_);fill:#F9CD8B;}
	.st5{clip-path:url(#SVGID_2_);fill:#F6EDE8;}
	.st6{clip-path:url(#SVGID_2_);fill:#F0C172;}
	.st7{clip-path:url(#SVGID_2_);fill:#FEF4E8;}
	.st8{clip-path:url(#SVGID_2_);fill:#F47B26;}
	.st9{clip-path:url(#SVGID_2_);fill:#544C48;}
	.st10{clip-path:url(#SVGID_2_);fill:#564E4B;}
	.st11{clip-path:url(#SVGID_2_);fill:#FBC2A6;}
	.st12{clip-path:url(#SVGID_2_);fill:#ED1E27;}
	.st13{clip-path:url(#SVGID_2_);fill:#EE2D30;}
	.st14{clip-path:url(#SVGID_2_);fill:#FBD48F;}
	.st15{clip-path:url(#SVGID_2_);fill:#ED2029;}
	.st16{clip-path:url(#SVGID_2_);fill:#BB2634;}
	.st17{clip-path:url(#SVGID_2_);fill:#BB2534;}
	.st18{clip-path:url(#SVGID_2_);fill:#F58132;}
	.st19{clip-path:url(#SVGID_2_);fill:#FBDE9A;}
	.st20{clip-path:url(#SVGID_2_);fill:#FDFBFA;}
	.st21{clip-path:url(#SVGID_2_);fill:#F2AC5B;}
	.st22{clip-path:url(#SVGID_2_);fill:#F47823;}
	.st23{clip-path:url(#SVGID_2_);fill:#423744;}
	.st24{clip-path:url(#SVGID_2_);fill:#F5AF6D;}
	.st25{clip-path:url(#SVGID_2_);fill:#F68C46;}
	.st26{clip-path:url(#SVGID_2_);fill:#EF4523;}
	.st27{clip-path:url(#SVGID_2_);fill:#F5DDCF;}
	.st28{fill:none;stroke:#DD4E9C;stroke-width:2;stroke-miterlimit:10;}
	.st29{fill:#ED185A;}
	.st30{font-family:'MarkerFelt-Thin';}
	.st31{font-size:16px;}
	.st32{font-family:'MarkerFelt-Wide';}
	.st33{font-size:20.6261px;}
	.st34{fill:#F9CD8B;}
	.st35{font-family:'AmericanTypewriter';}
	.st36{font-size:9px;}
	.st37{fill:none;stroke:#DE509D;stroke-width:2;stroke-linecap:round;stroke-miterlimit:10;}
</style>
<g id="Layer_1">
	<g>
		<g>
			<defs>
				<circle id="SVGID_1_" cx="46" cy="60" r="33.4"/>
			</defs>
			<clipPath id="SVGID_2_">
				<use xlink:href="#SVGID_1_"  style="overflow:visible;"/>
			</clipPath>
			<path class="st0" d="M-10.9,102.3c0.3-2,2-2.7,3.2-4.1c-3.5,0.1-6.2,2.4-9.2,3.8c-1.6,0.8-3.4,3-5,1.6c-1.2-1,0.4-3.3,1-4.9
				c0.6-1.5,1.2-3,1.8-4.7c-7.5-0.5-1-4.2-1.6-6.4c-0.9,0.2-1.9,0.3-2.8,0.7c-2.6,1.1-2.8-0.1-2.1-2.2c1.4-3.9,3.9-7.3,7-10.9
				c-4.3,0.1-7.3,2.6-11.3,2.8c0.1-5,3.9-8,6.1-11.8c-1.1-1.1-3.7,0.1-3.9-1.9c-0.1-1.8,2-2.3,3.3-3.3c2.1-1.7,4.7-2.2,6.5-5.1
				c1.4-2.4,6.3-2.1,9.7-1.6c9.1,1.3,16.9,5.4,23.3,11.9c3.6,3.7,5,8.7,5.3,13.9c-0.6,2.7-0.5,5.3,0,8c0,2.2-0.5,4.4-1.4,6.4
				c-1.4,1.4-0.4,3.2-0.7,4.8c-1.4,2.9-1.4,6.2-2.9,9.1c-0.1,0-0.3,0-0.4,0.1c-1.8,0.7-4.2-2.7-4.9-0.4c-0.8,2.7-4.6,5.4-1.3,8.9
				c1.1,1.1,1.5,2.8,2,4.4c0.3,1.2,0.8,2.3,0.6,3.6c-0.1,0.4-0.3,0.8-0.6,1c-2-0.1-2.8-2.2-4.3-2.8c-3.5-1.4-3.5-2.8-0.3-4.4
				c-1-2.8-6.5-1.6-5-6.5c0.2-0.8-3.2-0.4-4.9-1.1c-2.1-0.9-7,0.1-2.9-4.7c0.8-0.9-0.7-1.2-1.6-1.4C-9.5,104.6-12,105.2-10.9,102.3z
				"/>
			<path class="st1" d="M15.1,108.2c0.2-0.2,0.6-0.5,0.6-0.5c-2-3.3,0.1-5.5,2.1-7.6c0.6,0.1,1.2,0.3,1.7,0.8c1.8,1.6,4,1.1,6,0.7
				c4.4-0.9,8.6-2.4,12.9-3.2c6.8-1.2,9.2-5.7,9.8-11.9c0.1-1.2,0.2-2.4,0.2-3.6c1.6-1.2,3.3-1.5,5.2-1c0.5,0.5,0.7,1.2,0.6,1.9
				c-0.4,1.8-0.2,3.6-0.2,5.4c-0.2,2.4,0.3,4.8-0.3,7.2c1.5,6.3,4.2,12.3,4.2,18.9c-0.5,1.7-0.5,3.5,0,5.2
				c-0.4,10.3-4.9,17.6-15.2,20.7c-0.7,0.7-1.6,1.1-2.5,1.2c-1.7,0.6-3.4,0.7-5.1,0.3c-3.4-1.1-7.2,0.6-10.4-1.5
				c-6.2-1-9.5-5.4-12.1-10.6c-0.7-1.4-1.3-3-1.9-4.4c0,0,0.1-0.2,0.1-0.2l0.2,0c0.6-0.8,0.7-2.1,2-2.1c2.6,0.8,4.4,3,6.6,4.4
				c7.5,4.8,12.8,4.7,18.3-1.1c2.4-2.5,4.7-4.9,6.7-7.8c1.2-1.7,2-3.4,0.6-5.3c-1.3-1.8-2.8-3.1-5.3-2c-2.6,1.2-5.4-0.1-7.6-0.5
				c-4-0.7-8.1,1.7-11.9-0.5c-1.1-0.6-2.3,0.3-3.5,0.2C14.9,111.2,13.9,110.3,15.1,108.2z"/>
			<path class="st0" d="M38.3,73.1c-1.6,0.2-3.2,0.5-4.9,0.5c-5,0-6-1.7-3.9-6.4c-2.3-0.6-5.6-0.7-5.9-3.6c-0.3-2.5,2.5-3.7,5-4.7
				c-1.8-2.9-6.2-4.6-4-9c2.9-5.7,7.1-0.8,10.9-1c-2.1-2.9-3.6-5.8-4.2-9c0.6-1.5,0.6-2.9,0-4.4c-0.1-1.9,0.9-3,2.6-3.5
				c1.5,0.4,2.9,0.5,4.4-0.1c4.5,2.9,6.5,7.6,8.1,12.4c-0.1,3.2-2.4,5.5-3.6,8.2c-1,2.3-1.4,4.3-0.5,6.5c0,1.1-0.2,2.2,0,3.2
				c-0.3,1.5,0.4,2.9,0.1,4.4c-0.2,0.6-0.4,1.1-0.7,1.6C40.6,69.9,39.8,71.8,38.3,73.1z"/>
			<path class="st2" d="M41.9,59.7c-3.4-5.2,1.5-8.6,2.8-12.8c0.3-0.9,1.2-1.6,1.9-2.5c4.3-2.7,5.3,1.4,7,3.6c0.9,1.2,1,3,1.5,4.6
				c2.6-0.1,3.9-6.2,7.6-1.9c0.9,2.2,0.8,4.6,1.1,6.9c0.2,0.8-0.1,1.3-0.7,1.8c-1.8,1-3.5,2.3-5.7,2C55.1,61,53,60.3,50.8,60
				c-0.8-0.1-1.7-0.2-2.5-0.5C46.2,58.7,44,57.7,41.9,59.7z"/>
			<path class="st3" d="M60.8,67.7c3.6,2.3,8.3,2.3,12,5.4c-3.4,2.1-7.2,1-10.3,2.5c-0.4,0.6-1,0.7-1.6,0.7
				c-1.4-0.3-2.9-0.4-4.3-0.9c-0.4-0.2-0.7-0.5-0.9-0.9c-0.7-1.9-0.5-3.8-0.3-5.7c0.1-0.4,0.2-0.8,0.4-1.2c0.5-0.9,1-1.9,2.2-2
				C59.3,65.9,60.4,66.4,60.8,67.7z"/>
			<path class="st0" d="M60.7,75.6c0.6,0,1.2,0,1.7,0c0.4,1.4,0.9,2.8,1.1,4.3c0.5,3.8-4.1,8.4-8.1,8.4c-3.2-1.6-0.8-4.4-1.4-6.5
				c-0.1-1.5,0.3-2.8,0.8-4.2c0.4-0.9,0.8-1.7,1.8-2.1C57.9,75.4,59.4,75.1,60.7,75.6z"/>
			<path class="st4" d="M56.4,75.7c-0.3,0.6-0.6,1.1-0.9,1.7c-0.6,0.1-1.1,0.4-1.6,0.6c-1.9,0.6-3.8,1.5-5.9,1.5
				c-1.3-1.4-2.9-1.6-4.6-2c-2.5-0.6-4.7-1.5-5.1-4.5c0-2.3,1.5-3.8,2.9-5.3c2.5,0.3,2.2,2.8,3.2,4.3c2.1,3.1,3.8,3.6,7.3,1.7
				c0.3-0.3,0.5-0.6,0.9-0.8c1.8-0.4,3.2-0.2,3.6,2l0.3-0.1c0.2,0.2,0.3,0.4,0.2,0.6C56.6,75.6,56.5,75.7,56.4,75.7z"/>
			<path class="st5" d="M60.8,67.7c-1-0.5-1.9-1.1-2.9-1.6c-1.1-0.7-1.7-1.6-2-2.9c-0.1-1.1,0.4-1.9,1.3-2.6
				c2.4,1.1,3.2-2.2,5.4-1.8c1.7,1.2-0.2,3.1,0.9,4.4C63.2,65.1,62.7,66.8,60.8,67.7z"/>
			<path class="st6" d="M48,79.6c1.8-1.9,4.5-1.6,6.5-2.9c0.9,1.3-0.2,2.4-0.2,3.7c-0.3,0.6-0.2,1.3-0.9,1.6
				c-1.5,1.2-3.3,0.9-5.1,0.9C48.3,81.8,48.2,80.7,48,79.6z"/>
			<path class="st7" d="M53.5,82c0.1-0.6,0.2-1.1,0.3-1.7c0.9-0.1,1.3,0.1,0.9,1.1c0.1,2.3-0.5,4.7,0.7,6.9c-2.1,2.3,0.3,5.7-1.7,8
				c0-2.7-0.1-5.3-0.1-8c-0.7-1.5-0.6-2.9-0.1-4.4C53.5,83.2,53.5,82.6,53.5,82z"/>
			<path class="st8" d="M63.5,57.9c-1.8-2.2-0.5-4.8-0.9-7.2c2.3,2,1.1,4.8,1.8,7.1C64.1,58.3,63.8,58.3,63.5,57.9z"/>
			<path class="st9" d="M58.2,44c0.6-0.8,1.1-2,2.4-1.9c0.6,0,1.4,0.8,1.1,1.6c-0.4,1.2-1.5,1.7-2.7,1.6C58.3,45.3,58,44.8,58.2,44z
				"/>
			<path class="st10" d="M52.6,42.9c-1.6-0.4-2.8-1.1-2.8-2.8c0-0.2,1-0.7,1.5-0.6C53.3,39.9,53,41.3,52.6,42.9z"/>
			<path class="st11" d="M63.5,57.9c0.3,0,0.6,0,0.9,0c0.3,1.9-0.6,3.6-0.9,5.4c-1.7-1.2-0.4-3-0.9-4.4
				C62.9,58.5,63.2,58.2,63.5,57.9z"/>
			<path class="st12" d="M20.4,88.3c-1.2-2.7-1.2-5.3,0-8C20.4,82.9,20.4,85.6,20.4,88.3z"/>
			<path class="st13" d="M19.5,100.9c-0.6-0.3-1.1-0.5-1.7-0.8c0.4-1.8-1-4,1.2-5.4C18.7,96.8,18.6,98.9,19.5,100.9z"/>
			<path class="st14" d="M58,120.5c-1.2-1.8-1.2-3.5,0-5.2C58,117,58,118.7,58,120.5z"/>
			<path class="st15" d="M-10.9,102.3c-0.2,2,1.9,1.8,2.8,2.8C-10,105.1-13.3,106.4-10.9,102.3z"/>
			<path class="st16" d="M38.4,32c-1.4,1.2-2.9,1.2-4.4,0.1C35.4,31.5,36.9,31.4,38.4,32z"/>
			<path class="st17" d="M31.4,35.5c1.1,1.5,1.2,2.9,0,4.4C31.1,38.5,30.7,37,31.4,35.5z"/>
			<path class="st18" d="M15.1,108.2c0,0.3,0,0.8,0.1,0.8c3.2,0.5,6.4,1.3,9.6,1.2c0.5,0,1.8-0.6,2.9-0.6c2,0,4.4,3.7,6-0.5
				c0,0,1.2,0.1,1.6,0.5c1.9,2.1,3.5,2,6.1,0.6c2.3-1.3,3.5,2.1,5.2,3.3c1.5,1,1.1,2.8,0.4,4.1c-3.2,5.6-7.1,10.7-12.8,14
				c-5.6,3.2-10.7,0.5-15.4-2.5c-2.2-1.4-4.2-3.3-6.3-4.9c-1.1-0.2-1.6-1.3-2.5-1.7c-1-2.3-2.3-4.5-3-6.9c-0.4-1.5-3.6-4.3,1.3-4.6
				c0.2,0,0.5-0.6,0.5-1c0.8-4.7,0.7-4.7,5.1-2.2C14.2,108,14.7,108,15.1,108.2z"/>
			<path class="st19" d="M9.9,122.4c1.4-0.3,2,0.7,2.5,1.7c0,1-0.5,1.6-1.5,1.8C10.6,124.8,10.3,123.6,9.9,122.4z"/>
			<path class="st14" d="M53.5,83.9c0,1.5,0.1,3,0.1,4.4C52.3,86.9,52.3,85.4,53.5,83.9z"/>
			<path class="st20" d="M57.2,60.6c-0.3,0.9-0.6,1.8-0.9,2.6c0.8,1.5,0.1,2.9-0.1,4.4l-0.1-0.1c-1.2,1.8-0.3,4.8-3.4,5.5
				c-0.1,0.3-0.1,0.5-0.1,0.8c-4.2,2.9-8.4,0.5-10.1-6.6c0-1.6-0.9-3.1-0.6-4.8c-0.4-0.9-0.6-1.8-0.1-2.7c1.3-6,4.2-1.3,6.4-1
				c0.8,1.1,1.6,1.3,2.6,0.2C53,59.4,55.2,59.5,57.2,60.6z"/>
			<path class="st21" d="M43,66.8c2.4,3.5,3.4,9,9.7,7c-2.4,3.3-6.1,3.3-8.5-0.2c-1.2-1.8-2-3.9-3-5.9c0.3-0.3,0.5-0.7,0.8-1
				C42.4,66.4,42.7,66.4,43,66.8z"/>
			<path class="st22" d="M43,66.8c-0.3,0-0.6-0.1-1-0.1c0.2-1.4-1.9-2.9-0.1-4.3C42.9,63.7,42.9,65.3,43,66.8z"/>
			<path class="st23" d="M50.9,58.9c-0.2,1.1-0.4,2.5-1.9,2.2c-1.2-0.2-0.8-1.5-0.7-2.4C49.1,58.8,50,58.8,50.9,58.9z"/>
			<path class="st24" d="M52.8,73.1c1.3-1.7,1.3-4.2,3.4-5.5c0,2.4,0,4.9,0,7.3C55.5,73.3,53.9,73.8,52.8,73.1z"/>
			<path class="st25" d="M56.2,67.7c-1.5-1.5-0.4-3,0.1-4.4c1.2,0.5,1.1,1.8,1.6,2.8C57.3,66.6,56.8,67.1,56.2,67.7z"/>
			<path class="st26" d="M56.4,75.7c0-0.3,0-0.6,0-0.9c1.4,0.2,3.1-0.5,4.3,0.8C59.3,75.7,57.9,75.7,56.4,75.7z"/>
			<path class="st27" d="M54.7,81.4c-0.3-0.4-0.6-0.7-0.9-1.1c0.3-1.2,0.5-2.4,0.8-3.6c0.3,0.3,0.7,0.5,1,0.8
				C55.3,78.8,55.8,80.2,54.7,81.4z"/>
			<path class="st23" d="M61.8,58.8c-0.1,1.1,0.8,2.7-0.6,3.1c-1.2,0.4-1.8-0.7-1.7-1.7C59.9,60.1,60.6,59,61.8,58.8z"/>
		</g>
		<circle class="st28" cx="46" cy="60" r="33.4"/>
	</g>
	<text transform="matrix(1 0 0 1 122.9119 45.7677)"><tspan x="0" y="0" class="st29 st30 st31">THE GREAT</tspan><tspan x="-26.6" y="24.8" class="st29 st32 st33">CHICKEN FEST</tspan></text>
	<text transform="matrix(1 0 0 1 113.4137 93.67)" class="st34 st35 st36">SUBLIME CHAT APP </text>
	<line class="st37" x1="191.1" y1="79.3" x2="123.5" y2="79.3"/>
</g>
<g id="_x3C_Layer_x3E_">
</g>
</svg>
