<?xml version="1.0" standalone="no"?>
<!DOCTYPE svg PUBLIC "-//W3C//DTD SVG 20010904//EN"
 "http://www.w3.org/TR/2001/REC-SVG-20010904/DTD/svg10.dtd">
<svg version="1.0" xmlns="http://www.w3.org/2000/svg"
 width="258.000000pt" height="258.000000pt" viewBox="0 0 258.000000 258.000000"
 preserveAspectRatio="xMidYMid meet">
<metadata>
Created by potrace 1.11, written by Peter Selinger 2001-2013
</metadata>
<g transform="translate(0.000000,258.000000) scale(0.100000,-0.100000)"
fill="#000000" stroke="none">
<path d="M1217 2574 c-1 -1 -29 -4 -62 -7 -418 -40 -803 -298 -1000 -670 -62
-117 -84 -177 -126 -337 -30 -119 -32 -363 -3 -528 9 -53 49 -182 79 -252 157
-373 515 -670 905 -749 30 -6 66 -14 80 -17 55 -12 308 -12 390 1 444 69 816
356 993 768 85 198 118 428 94 653 -33 316 -200 628 -447 836 -113 94 -287
195 -395 227 -22 7 -49 16 -60 21 -18 7 -72 21 -136 34 -64 14 -301 29 -312
20z m233 -28 c202 -32 355 -87 510 -184 314 -195 530 -528 586 -902 12 -82 11
-251 -2 -344 -17 -116 -36 -189 -81 -300 -131 -328 -395 -586 -730 -715 -110
-42 -122 -41 -117 6 6 69 21 90 67 97 142 23 280 168 279 293 -1 53 -3 67 -25
140 l-15 50 32 11 c40 13 76 20 156 27 73 7 165 30 192 49 17 12 15 15 -19 38
-62 41 -94 55 -234 103 -74 25 -144 53 -158 62 l-24 15 31 29 c19 18 37 49 46
82 38 131 53 206 50 248 -2 24 -5 80 -8 125 -3 44 -10 92 -15 105 -13 35 -61
88 -93 105 -52 27 -83 18 -140 -37 -54 -53 -96 -85 -102 -78 -2 2 -11 35 -20
73 -12 48 -34 95 -73 156 -77 119 -115 139 -196 105 l-35 -14 -37 92 c-44 110
-85 187 -133 245 -108 133 -184 168 -296 135 -97 -29 -107 -43 -131 -190 -13
-80 59 -298 135 -408 18 -26 29 -49 26 -52 -3 -4 -57 10 -118 30 -62 21 -129
37 -148 37 -93 0 -180 -124 -158 -225 10 -42 32 -75 94 -140 84 -88 83 -79 12
-112 -79 -38 -115 -73 -123 -123 -13 -76 40 -130 146 -151 33 -6 62 -15 65
-20 3 -5 -2 -29 -11 -54 -17 -52 -20 -108 -5 -134 24 -45 186 -67 312 -43 l48
9 12 -39 c19 -64 72 -101 191 -133 114 -31 163 -56 173 -88 22 -69 7 -309 -27
-417 -30 -93 -29 -93 -128 -86 -309 20 -587 144 -808 362 -90 88 -93 92 -94
137 -1 26 -2 50 -3 55 -1 4 -6 32 -10 62 -25 168 -95 306 -220 434 -49 50 -55
81 -51 251 4 134 5 146 31 255 126 525 577 920 1104 967 36 3 66 7 68 8 4 3
194 -4 222 -9z"/>
<path d="M1462 2069 c-12 -5 -25 -15 -28 -23 -10 -25 25 -75 62 -91 46 -19 42
-20 52 18 17 65 -29 117 -86 96z"/>
<path d="M1788 1943 c-32 -36 -41 -62 -27 -79 17 -20 72 -17 101 6 32 25 40
53 21 79 -21 30 -64 27 -95 -6z"/>
</g>
</svg>
